<svg xmlns="http://www.w3.org/2000/svg" width="24" height="24" viewBox="0 0 24 24">
  <g id="bath" transform="translate(-472 -2050)">
    <g id="bath-2" data-name="bath" transform="matrix(-1, 0, 0, -1, 496, 2041.86)">
      <path id="Path_75" data-name="Path 75" d="M18.023-13.422c.684-.946,1.69-.783,2.253.363a4.045,4.045,0,0,1-.219,3.783c-.681.941-1.691.778-2.251-.367A4.039,4.039,0,0,1,18.023-13.422Z"/>
      <path id="Path_76" data-name="Path 76" d="M9.683-15.695c0-1.433-1.281-1.433-1.281,0s1.281,1.435,1.281,0"/>
      <path id="Path_77" data-name="Path 77" d="M8.257-13.2c0-.583-.52-.583-.52,0s.52.581.52,0"/>
      <path id="Path_78" data-name="Path 78" d="M4.8-9.13c0-.583-.52-.583-.52,0s.52.581.52,0"/>
      <path id="Path_79" data-name="Path 79" d="M7.467-11.138c0-1.152-1.03-1.152-1.03,0s1.03,1.151,1.03,0"/>
      <path id="Path_80" data-name="Path 80" d="M7.178-14.176c0-.892-.8-.892-.8,0s.8.89.8,0"/>
      <path id="Path_81" data-name="Path 81" d="M8.55-8.809c0-.89-.8-.89-.8,0s.8.892.8,0"/>
      <path id="Path_82" data-name="Path 82" d="M15.518-18.386A.384.384,0,0,1,15.6-18.4a.317.317,0,0,1,.064,0L17.3-15.714l-1.67-3.1h-1.72l-1.8,1.5Zm-5.263-2.008h9.435l.22.407-1.15,2.637,1.374-2.658-1.681-3.111.648-1.16,2.439,3.367a1.73,1.73,0,0,1,.045,1.582L19.491-15.3l-.006-.009c-.025.044-.045.095-.074.136a.963.963,0,0,1-1.44.4l-.015-.012L15.6-16.1l-3.4.577-.184-1.72-.5.413c-.345.287-.76.147-1.013-.34l-.855-1.647h-8.3c-1.535,0-1.336-1.578-1.336-1.578Z"/>
      <path id="Path_83" data-name="Path 83" d="M22.656-18.816H21.621l.109-.349a2.168,2.168,0,0,0,.178-1.229h2.084S24.191-18.816,22.656-18.816Z"/>
      <path id="Path_84" data-name="Path 84" d="M21.66-21.124l-2.573-3.554-.869,1.556,1.294,2.392c-.405-.008-.819-.015-1.237-.021-1-.01-2.035-.023-3.086-.033S13.071-20.793,12-20.8s-2.136.009-3.186.015-2.085.025-3.087.035c-1.7.021-3.306.074-4.734.109.239-1.076.7-3.153.983-4.452.346-1.586,1.017-4.141,2.562-5L4.21-32.14h.8l.436,1.763A28.69,28.69,0,0,1,12-30.946a28.568,28.568,0,0,1,6.56.569L19-32.14h.8l-.331,2.052c1.545.856,2.215,3.411,2.563,5,.284,1.3.744,3.373.982,4.45-.372-.008-.757-.021-1.154-.031A1.769,1.769,0,0,0,21.66-21.124Z"/>
    </g>
    <path id="Color_Overlay" data-name="Color Overlay" d="M490.993,2074l-.437-1.763a38.127,38.127,0,0,1-13.12,0L477,2074h-.8l.331-2.053c-1.545-.855-2.216-3.411-2.563-5-.284-1.3-.743-3.373-.982-4.45.373.008.757.022,1.154.031a1.738,1.738,0,0,0,.2.451l2.573,3.554.868-1.557-1.293-2.391c.4.008.819.014,1.237.021,1,.011,2.035.023,3.086.033s2.119.009,3.186.015,2.137-.008,3.187-.015,2.085-.025,3.086-.035c1.7-.021,3.307-.074,4.734-.109-.238,1.076-.7,3.153-.983,4.451-.346,1.586-1.017,4.142-2.562,5l.331,2.053Zm-16.533-11.228a1.732,1.732,0,0,1-.045-1.582l2.094-4.032.005.008c.025-.044.045-.094.074-.136a1.118,1.118,0,0,1,.9-.584.912.912,0,0,1,.538.187l.014.012,2.359,1.314,3.4-.578.184,1.72.5-.412c.345-.288.76-.147,1.012.339l.855,1.647h8.3c1.535,0,1.336,1.578,1.336,1.578H476.309l-.22-.407,1.15-2.637-1.374,2.658,1.681,3.111-.647,1.16Zm5.914-2.1h1.72l1.8-1.5-3.412,1.066a.4.4,0,0,1-.086.017h-.012c-.017,0-.034,0-.052,0l-1.629-2.685Zm-8.366,1.578s-.2-1.578,1.336-1.578h1.035l-.109.348a2.17,2.17,0,0,0-.177,1.229Zm14.308-4.7c0-.718.32-1.076.641-1.076s.641.358.641,1.076-.32,1.074-.641,1.074S486.317,2058.271,486.317,2057.555Zm2.506-1.519c0-.446.2-.668.4-.668s.4.222.4.668-.2.669-.4.669S488.822,2056.482,488.822,2056.036Zm-13.1-1.117a4.045,4.045,0,0,1,.219-3.782,1.284,1.284,0,0,1,1.016-.612,1.48,1.48,0,0,1,1.236.979,4.04,4.04,0,0,1-.218,3.778,1.287,1.287,0,0,1-1.018.615A1.479,1.479,0,0,1,475.724,2054.919Zm12.02.139c0-.291.13-.436.26-.436s.26.145.26.436-.13.437-.26.437S487.743,2055.349,487.743,2055.057Zm.79-2.06c0-.576.257-.863.515-.863s.515.287.515.863-.257.864-.515.864S488.534,2053.573,488.534,2053Zm2.668-2.007c0-.291.13-.437.26-.437s.26.146.26.437-.13.438-.26.438S491.2,2051.282,491.2,2050.99Zm-3.752-.321c0-.446.2-.669.4-.669s.4.222.4.669-.2.667-.4.667S487.449,2051.114,487.449,2050.669Z" fill="#454851"/>
  </g>
</svg>
