<svg xmlns="http://www.w3.org/2000/svg" width="17" height="17" viewBox="0 0 17 17">
  <g id="beachfront" transform="translate(-537 -2054)">
    <g id="beachfront-2" data-name="beachfront" transform="translate(536.285 2053.31)">
      <path id="Path_95" data-name="Path 95" d="M9.605,16.15H7.75l3.438-8.819a11.7,11.7,0,0,1,2.745,1.555c1.248-2.639,1.054-5.367-.758-7.017C8.917,2.5,7.43,4.394,6.523,6.223A11.716,11.716,0,0,1,10,6.886L6.346,16.116H6.164c-.939,0-5.448.666-5.448,1.574h14.45c0-.908-4.622-1.54-5.56-1.54"/>
      <path id="Path_96" data-name="Path 96" d="M14.881,2.937a8.548,8.548,0,0,1,0,6.743,5.008,5.008,0,0,1,1.765,1.1,6.572,6.572,0,0,1,.785.817,7.318,7.318,0,0,0,.284-2.173,8.2,8.2,0,0,0-2.834-6.487"/>
      <path id="Path_97" data-name="Path 97" d="M5.593,5.77a8.929,8.929,0,0,1,5.855-4.541,7.408,7.408,0,0,0-1.6-.173,7.006,7.006,0,0,0-6.8,4.279,7.025,7.025,0,0,1,2.541.436"/>
      <path id="Path_98" data-name="Path 98" d="M12.6,1.21c.238,0,.43-.116.43-.26S12.841.69,12.6.69s-.43.116-.43.26.192.26.43.26"/>
    </g>
    <path id="Color_Overlay" data-name="Color Overlay" d="M537,2071c0-.908,4.509-1.574,5.449-1.574h.182l3.654-9.23a11.714,11.714,0,0,0-3.477-.663c.906-1.83,2.394-3.723,6.652-4.354,1.812,1.65,2.006,4.377.758,7.017a11.685,11.685,0,0,0-2.745-1.555l-3.438,8.818h1.855c.939,0,5.559.633,5.56,1.541Zm15.931-6.909a5.016,5.016,0,0,0-1.765-1.1,8.552,8.552,0,0,0,0-6.743,8.2,8.2,0,0,1,2.834,6.486,7.31,7.31,0,0,1-.284,2.174A6.577,6.577,0,0,0,552.931,2064.091Zm-13.594-5.448a7.006,7.006,0,0,1,6.8-4.279,7.414,7.414,0,0,1,1.6.174,8.929,8.929,0,0,0-5.854,4.541A7.035,7.035,0,0,0,539.337,2058.643Zm9.121-4.383c0-.144.193-.26.431-.26s.43.116.43.26-.193.26-.43.26S548.457,2054.4,548.457,2054.26Z" fill="#454851"/>
  </g>
</svg>
