<svg xmlns="http://www.w3.org/2000/svg" width="24" height="24" viewBox="0 0 24 24">
  <g id="bed" transform="translate(-410 -2050)">
    <g id="bed-2" data-name="bed" transform="translate(408.578 2041.499)">
      <path id="Path_73" data-name="Path 73" d="M25.074,21.372a.725.725,0,0,0-.787-.3,14.312,14.312,0,0,1-3.76.485,12.416,12.416,0,0,1-3.532-.487,21.9,21.9,0,0,0-5.855-.6,81.386,81.386,0,0,0-8.85.577c-.491.062-.868.69-.868,1.442v6.391c0,.8.423,1.448.948,1.448h.119L2.844,32.5h.948l.355-2.172h18.63l.355,2.172h.948l.355-2.172h.041c.523,0,.946-.649.946-1.448V22.488A1.831,1.831,0,0,0,25.074,21.372Zm-4.832-2.819H13.821c0-1.156,1.437-2.091,3.211-2.091S20.242,17.4,20.242,18.553Zm-7.267,0H6.553c0-1.156,1.437-2.091,3.211-2.091S12.975,17.4,12.975,18.553ZM4.184,12.625A43.318,43.318,0,0,1,13.421,11.4a43.347,43.347,0,0,1,9.237,1.23v5.945h1.894V10.184l-.782-.214A45.3,45.3,0,0,0,13.42,8.5,45.3,45.3,0,0,0,3.07,9.97l-.78.214v8.687H4.184Z"/>
    </g>
    <path id="Color_Overlay" data-name="Color Overlay" d="M431.71,2074l-.355-2.172h-18.63l-.355,2.172h-.948l-.355-2.172h-.119c-.525,0-.948-.649-.948-1.447v-6.392c0-.751.377-1.38.868-1.441a81.143,81.143,0,0,1,8.85-.577,21.921,21.921,0,0,1,5.854.6,12.406,12.406,0,0,0,3.533.488,14.3,14.3,0,0,0,3.76-.485.723.723,0,0,1,.788.3,1.832,1.832,0,0,1,.347,1.117v6.394c0,.8-.423,1.447-.946,1.447h-.041l-.355,2.172Zm-20.842-13.63v-8.688l.78-.213a37.2,37.2,0,0,1,20.7,0l.781.213v8.389h-1.895v-5.946a35.328,35.328,0,0,0-18.473,0v6.247Zm11.531-.319c0-1.156,1.437-2.091,3.212-2.091s3.209.935,3.209,2.091Zm-7.268,0c0-1.156,1.437-2.091,3.211-2.091s3.212.935,3.212,2.091Z" fill="#454851"/>
  </g>
</svg>
