<svg xmlns="http://www.w3.org/2000/svg" width="17" height="17" viewBox="0 0 17 17">
  <g id="pool" transform="translate(-574 -2054)">
    <g id="pool-2" data-name="pool" transform="translate(573.998 2052.786)">
      <path id="Path_103" data-name="Path 103" d="M17,16.325a2.238,2.238,0,0,1-.945.27c-.708,0-1.18-.539-1.889-.539s-1.18.539-1.889.539-1.18-.539-1.889-.539S9.21,16.6,8.5,16.6s-1.18-.539-1.889-.539-1.18.539-1.889.539-1.18-.539-1.889-.539S1.655,16.6.947,16.6A2.236,2.236,0,0,1,0,16.326v1.619a2.218,2.218,0,0,0,.943.269c.708,0,1.18-.539,1.889-.539s1.18.539,1.889.539,1.18-.539,1.889-.539,1.18.539,1.889.539,1.18-.539,1.889-.539,1.18.539,1.889.539,1.18-.539,1.889-.539,1.18.539,1.889.539a2.226,2.226,0,0,0,.945-.27V16.325Z"/>
      <path id="Path_104" data-name="Path 104" d="M17,13.087a2.238,2.238,0,0,1-.945.27c-.708,0-1.18-.539-1.889-.539s-1.18.539-1.889.539-1.18-.539-1.889-.539-1.18.539-1.889.539-1.18-.539-1.889-.539-1.18.539-1.889.539-1.18-.539-1.889-.539-1.18.539-1.889.539A2.236,2.236,0,0,1,0,13.088v1.619a2.233,2.233,0,0,0,.945.269c.708,0,1.18-.539,1.889-.539s1.18.539,1.889.539,1.18-.539,1.889-.539,1.18.539,1.889.539,1.18-.539,1.889-.539,1.18.539,1.889.539,1.18-.539,1.889-.539,1.18.539,1.889.539a2.226,2.226,0,0,0,.945-.27Z"/>
      <path id="Path_105" data-name="Path 105" d="M2.834,7.961H7.556V9.58H2.834Zm0,3.777V11.2H7.556v.81a2.235,2.235,0,0,0,.945.27,1.527,1.527,0,0,0,.472-.079V6.611a3.569,3.569,0,0,1,3.306-3.777,3.569,3.569,0,0,1,3.306,3.777.715.715,0,1,0,1.418,0c0-2.976-2.119-5.4-4.722-5.4-2.525,0-4.587,2.277-4.711,5.127H2.846A3.529,3.529,0,0,1,6.14,2.834,2.955,2.955,0,0,1,7.7,3.285a6.169,6.169,0,0,1,.924-1.257,4.27,4.27,0,0,0-2.483-.813c-2.6,0-4.722,2.42-4.722,5.4V12.2A4.588,4.588,0,0,1,2.834,11.738Z"/>
    </g>
    <path id="Color_Overlay" data-name="Color Overlay" d="M588.164,2070.461c-.708,0-1.18.539-1.888.539s-1.181-.539-1.889-.539-1.18.539-1.889.539-1.18-.539-1.888-.539-1.181.539-1.889.539-1.18-.539-1.889-.539-1.18.539-1.888.539a2.214,2.214,0,0,1-.943-.269v-1.619a2.229,2.229,0,0,0,.945.269c.708,0,1.18-.539,1.888-.539s1.181.539,1.889.539,1.181-.539,1.889-.539,1.18.539,1.888.539,1.181-.539,1.889-.539,1.181.539,1.889.539,1.18-.539,1.888-.539,1.181.539,1.889.539a2.225,2.225,0,0,0,.943-.269v1.618a2.22,2.22,0,0,1-.945.27C589.345,2071,588.874,2070.461,588.164,2070.461Zm2.834-1.35h0Zm-2.832-1.888c-.708,0-1.18.539-1.888.539s-1.181-.539-1.889-.539-1.18.539-1.889.539-1.18-.539-1.888-.539-1.181.539-1.889.539-1.18-.539-1.889-.539-1.18.539-1.888.539a2.229,2.229,0,0,1-.945-.269v-1.619a2.229,2.229,0,0,0,.945.269c.708,0,1.18-.539,1.888-.539s1.181.539,1.889.539,1.181-.539,1.889-.539,1.18.539,1.888.539,1.181-.539,1.889-.539,1.181.539,1.889.539,1.18-.539,1.888-.539,1.181.539,1.889.539a2.23,2.23,0,0,0,.945-.27v1.619a2.22,2.22,0,0,1-.945.27C589.347,2067.762,588.875,2067.223,588.166,2067.223Zm-6.611-2.428v-.81h-4.723v.539a4.6,4.6,0,0,0-1.417.462V2059.4c0-2.976,2.119-5.4,4.722-5.4a4.271,4.271,0,0,1,2.483.814,6.179,6.179,0,0,0-.923,1.257,2.952,2.952,0,0,0-1.559-.452,3.529,3.529,0,0,0-3.294,3.508h4.722c.124-2.85,2.187-5.127,4.711-5.127,2.6,0,4.722,2.421,4.722,5.4a.715.715,0,1,1-1.417,0,3.335,3.335,0,1,0-6.611,0v5.588a1.524,1.524,0,0,1-.473.079A2.24,2.24,0,0,1,581.555,2064.794Zm-4.723-2.429h4.723v-1.619h-4.723Z" fill="#454851"/>
  </g>
</svg>
