<svg xmlns="http://www.w3.org/2000/svg" width="50" height="37.755" viewBox="0 0 50 37.755">
  <g id="Vector_Smart_Object" data-name="Vector Smart Object" transform="translate(-267.5 -2406.622)">
    <g id="Vector_Smart_Object-2" data-name="Vector Smart Object" transform="translate(253.543 2387.722)">
      <path id="Path_137" data-name="Path 137" d="M56.04,31.977a18.559,18.559,0,0,1-3.873-2.458c.759-1,2.278-3.228,2.049-4.845a2.508,2.508,0,0,0-.759-1.385,2.257,2.257,0,0,0-1.214-.384,4.033,4.033,0,0,0-2.508,1.3,2.684,2.684,0,0,1,.075-.769c.3-2.073,1.29-3.306,2.733-3.383h.151a4.415,4.415,0,0,1,3.946,3.459C57.254,25.9,56.95,28.675,56.04,31.977ZM50.95,28.29a6.815,6.815,0,0,1-1.064-2.23c.531-1,1.215-1.846,1.974-1.846a1.08,1.08,0,0,1,.53.152.843.843,0,0,1,.455.769C52.923,26.06,51.939,27.289,50.95,28.29Zm-1.823,1.689-1.139.92.456-1.461c.15-.384.38-1.153.683-1.922a6.722,6.722,0,0,0,.989,1.537A4.717,4.717,0,0,1,49.127,29.979Zm-20.347,0c-.151-.152-.531-.46-.989-.845A10.726,10.726,0,0,0,28.78,27.6a15.619,15.619,0,0,1,.684,1.922l.455,1.462Zm-3.722-4.764a.841.841,0,0,1,.455-.769,1.388,1.388,0,0,1,.531-.153c.683,0,1.368.845,1.973,1.846a6.815,6.815,0,0,1-1.064,2.23C26.047,27.289,25.058,26.06,25.058,25.216Zm-3.112,6.762c-.989-3.306-1.29-6.074-.609-8.38a4.421,4.421,0,0,1,3.947-3.459h.15c1.444.077,2.429,1.306,2.733,3.383a2.65,2.65,0,0,1,.076.769,3.668,3.668,0,0,0-2.508-1.3,2.257,2.257,0,0,0-1.214.384,1.817,1.817,0,0,0-.759,1.385c-.23,1.614,1.289,3.844,2.048,4.845A22.018,22.018,0,0,1,21.946,31.977Zm35.763.845c-.23-.076-.455-.232-.684-.307,1.064-3.612,1.369-6.611.684-9.224-.684-2.539-3.037-4.461-5.315-4.3-2.048.153-3.417,1.77-3.8,4.381a7.4,7.4,0,0,0,0,2.23c-.455.692-.759,1.229-.909,1.461L38.956,41.126,30.223,26.98c-.076-.152-.456-.769-.91-1.462a11.076,11.076,0,0,0,0-2.229c-.38-2.615-1.823-4.228-3.8-4.381-2.278-.152-4.631,1.77-5.315,4.3-.684,2.615-.38,5.614.684,9.224a2.691,2.691,0,0,1-.684.309c-3.567,1.922-6.075,9.3-6.224,9.609a.673.673,0,0,0,.38.769.663.663,0,0,0,.759-.384c0-.076,2.507-7.3,5.619-8.992.151-.076.3-.153.456-.233.608,2,1.443,4.076,2.428,6.458,2.508,6.074,1.369,10.914,0,11.763a.48.48,0,0,0-.15.769.628.628,0,0,0,.455.307.461.461,0,0,0,.3-.076c1.9-1.229,3.187-6.61.455-13.22-.989-2.383-1.823-4.536-2.429-6.534a18,18,0,0,0,4.252-2.69L37.136,43.82,29.847,55.5a.812.812,0,0,0-.15.846l.15.307h.526c.3,0,.455-.232.609-.384L39.03,46.126l8.048,10.145a.672.672,0,0,0,.609.384h.38l.15-.307a.853.853,0,0,0-.15-.846L40.778,43.82,51.409,30.292a19.742,19.742,0,0,0,4.252,2.69c-.609,2-1.444,4.151-2.429,6.534-2.733,6.534-1.444,11.991.455,13.22a.461.461,0,0,0,.3.076.413.413,0,0,0,.455-.307.584.584,0,0,0-.15-.769c-1.369-.846-2.508-5.689,0-11.763a63.228,63.228,0,0,0,2.428-6.458c.151.076.3.153.456.233,3.112,1.689,5.619,8.916,5.619,8.992a.625.625,0,0,0,.759.384.634.634,0,0,0,.38-.769C63.784,42.127,61.276,34.743,57.709,32.822Z"/>
    </g>
    <path id="Color_Overlay" data-name="Color Overlay" d="M301.231,2444.377a.671.671,0,0,1-.609-.384l-8.048-10.145-8.049,10.145c-.155.152-.3.384-.609.384h-.526l-.149-.308a.812.812,0,0,1,.149-.845l7.29-11.683-10.631-13.528a17.971,17.971,0,0,1-4.252,2.69c.606,2,1.44,4.152,2.429,6.534,2.732,6.61,1.444,11.991-.454,13.22a.461.461,0,0,1-.305.076.629.629,0,0,1-.454-.307.479.479,0,0,1,.15-.769c1.369-.851,2.507-5.69,0-11.764-.986-2.382-1.82-4.46-2.428-6.458-.15.079-.3.156-.455.232-3.112,1.689-5.619,8.916-5.619,8.992a.664.664,0,0,1-.76.384.673.673,0,0,1-.38-.769c.15-.309,2.658-7.687,6.224-9.608a2.76,2.76,0,0,0,.685-.309c-1.065-3.611-1.369-6.61-.685-9.225.685-2.534,3.037-4.455,5.315-4.3,1.973.153,3.417,1.767,3.8,4.381a10.978,10.978,0,0,1,0,2.229c.455.692.834,1.309.911,1.462l8.732,14.145,8.733-14.07c.149-.231.454-.769.909-1.461a7.423,7.423,0,0,1,0-2.23c.38-2.611,1.749-4.228,3.8-4.38,2.279-.156,4.631,1.766,5.315,4.3.685,2.614.38,5.612-.684,9.224.229.076.454.232.684.308,3.568,1.922,6.075,9.305,6.229,9.533a.634.634,0,0,1-.38.769.626.626,0,0,1-.76-.384c0-.076-2.507-7.3-5.619-8.992-.151-.08-.305-.157-.455-.232a63.333,63.333,0,0,1-2.428,6.458c-2.507,6.074-1.369,10.918,0,11.764a.584.584,0,0,1,.15.769.413.413,0,0,1-.454.307.461.461,0,0,1-.305-.076c-1.9-1.229-3.187-6.685-.454-13.22.985-2.382,1.819-4.536,2.429-6.534a19.7,19.7,0,0,1-4.253-2.69l-10.631,13.528,7.29,11.683a.852.852,0,0,1,.149.845l-.149.308Zm5.77-33.365a2.5,2.5,0,0,1,.759,1.384c.229,1.617-1.29,3.844-2.048,4.846a18.588,18.588,0,0,0,3.873,2.457c.909-3.3,1.213-6.073.6-8.46a4.415,4.415,0,0,0-3.947-3.459h-.151c-1.443.077-2.428,1.309-2.732,3.383a2.693,2.693,0,0,0-.075.769,4.031,4.031,0,0,1,2.507-1.3A2.254,2.254,0,0,1,307,2411.012Zm-32.122.307c-.68,2.307-.38,5.074.609,8.38a22,22,0,0,0,3.864-2.378c-.76-1-2.278-3.23-2.048-4.845a1.817,1.817,0,0,1,.76-1.384,2.254,2.254,0,0,1,1.214-.384,3.665,3.665,0,0,1,2.507,1.3,2.663,2.663,0,0,0-.076-.769c-.3-2.077-1.289-3.307-2.732-3.383h-.15A4.42,4.42,0,0,0,274.879,2411.319Zm6.455,5.538c.458.385.838.693.989.845l1.138,1-.454-1.461a15.575,15.575,0,0,0-.684-1.922A10.788,10.788,0,0,1,281.334,2416.856Zm20.652.305-.455,1.461,1.138-.921a4.692,4.692,0,0,0,.989-.924,6.774,6.774,0,0,1-.989-1.538C302.366,2416.008,302.136,2416.777,301.986,2417.162Zm-22.931-4.993a.843.843,0,0,0-.454.769c0,.844.989,2.073,1.895,3.155a6.817,6.817,0,0,0,1.064-2.23c-.6-1-1.29-1.846-1.973-1.846A1.393,1.393,0,0,0,279.055,2412.168Zm24.374,1.614a6.817,6.817,0,0,0,1.064,2.23c.989-1,1.974-2.23,1.895-3.155a.841.841,0,0,0-.454-.769,1.073,1.073,0,0,0-.529-.152C304.644,2411.936,303.96,2412.78,303.429,2413.782Z" fill="#fff"/>
  </g>
</svg>
